<svg width="83" height="36" viewBox="0 0 83 36" fill="none" xmlns="http://www.w3.org/2000/svg">
<path fill-rule="evenodd" clip-rule="evenodd" d="M58.3258 0.5V7.15807H48.7666V35.5H56.6261L68.9096 0.5L65.679 0.500011L58.3258 0.5ZM32.2783 0.5V7.15807H41.7869V35.5H18.3555L18.2543 35.4695C20.6635 34.6147 22.8391 33.2281 24.781 31.3097C28.2837 27.8166 30.035 23.549 30.035 18.5071C30.035 13.4651 28.2837 9.21401 24.781 5.75383C21.3765 2.35853 17.2538 0.613329 12.4132 0.518234L12.44 0.500011L32.2783 0.5ZM82.3109 35.5L80.2895 29.4525H66.1784L64.157 35.5H65.679H82.3109ZM4.01281 26.6632C6.16068 28.7723 8.82073 29.8268 11.993 29.8268C15.1652 29.8268 17.8252 28.7723 19.9731 26.6632C22.121 24.5212 23.1949 21.8025 23.1949 18.5071C23.1949 15.2117 22.121 12.4929 19.9731 10.3509C17.8252 8.20891 15.1652 7.1379 11.993 7.1379C8.82073 7.1379 6.16068 8.20891 4.01281 10.3509C1.86495 12.4929 0.791016 15.2117 0.791016 18.5071C0.791016 21.8025 1.86495 24.5212 4.01281 26.6632ZM73.2592 8.51995L78.1147 22.9458H68.4038L73.2592 8.51995Z" fill="#171B1F"/>
<ellipse cx="11.7063" cy="18.25" rx="11.7063" ry="11.75" fill="#A62531"/>
</svg>
